<svg xmlns="http://www.w3.org/2000/svg" data-name="Layer 1" viewBox="0 0 56.2 36.87"><rect width="30.18" height="24.29" x="10.88" y="2.03" rx=".81"/><path fill="#000100" d="M40.25,26.39H11.69a.89.89,0,0,1-.89-.89V2.84A.89.89,0,0,1,11.69,2H40.25a.89.89,0,0,1,.89.89V25.5A.89.89,0,0,1,40.25,26.39ZM11.69,2.11a.73.73,0,0,0-.73.73V25.5a.73.73,0,0,0,.73.73H40.25A.73.73,0,0,0,41,25.5V2.84a.73.73,0,0,0-.73-.73Z"/><rect width="30.18" height="24.29" x="10.88" y="2.03" fill="#fff" rx=".81"/><path fill="#000100" d="M40.25,26.39H11.69a.89.89,0,0,1-.89-.89V2.84A.89.89,0,0,1,11.69,2H40.25a.89.89,0,0,1,.89.89V25.5A.89.89,0,0,1,40.25,26.39ZM11.69,2.11a.73.73,0,0,0-.73.73V25.5a.73.73,0,0,0,.73.73H40.25A.73.73,0,0,0,41,25.5V2.84a.73.73,0,0,0-.73-.73Z"/><rect width="5.67" height="6.48" x="23.72" y="26.31" fill="#000100"/><path fill="#000100" d="M29.39,32.87H23.72a.08.08,0,0,1-.08-.08V26.31a.09.09,0,0,1,.08-.08h5.67a.09.09,0,0,1,.08.08v6.48A.08.08,0,0,1,29.39,32.87Zm-5.59-.16h5.51V26.39H23.8Z"/><path fill="#fbba61" d="M19.2,7.51H30.53a1.62,1.62,0,0,0,1.62-1.62h0a1.62,1.62,0,0,0-1.62-1.62H20.82A1.62,1.62,0,0,0,19.2,5.89Z"/><path fill="#000100" d="M30.53,7.59H19.2a.08.08,0,0,1-.08-.08V5.89a1.7,1.7,0,0,1,1.7-1.7h9.71a1.7,1.7,0,0,1,0,3.4ZM19.28,7.43H30.53a1.54,1.54,0,0,0,0-3.08H20.82a1.54,1.54,0,0,0-1.54,1.54Z"/><rect width="4.05" height=".41" x="20.82" y="5.08" fill="#fff"/><rect width="4.86" height=".41" x="25.68" y="5.08" fill="#fff"/><rect width="2.43" height=".4" x="20.82" y="6.29" fill="#fff"/><rect width="3.24" height=".4" x="24.06" y="6.29" fill="#fff"/><path fill="#fff" d="M17.58,5.89A1.62,1.62,0,1,1,16,4.27,1.62,1.62,0,0,1,17.58,5.89Z"/><path fill="#000100" d="M16,7.59a1.7,1.7,0,1,1,1.7-1.7A1.7,1.7,0,0,1,16,7.59Zm0-3.24A1.54,1.54,0,1,0,17.5,5.89,1.54,1.54,0,0,0,16,4.35Z"/><path d="M16,7.51A1.63,1.63,0,0,0,17.14,7a1.22,1.22,0,0,0-.91-1,.59.59,0,0,0,.34-.54.6.6,0,0,0-.61-.6.61.61,0,0,0-.61.6A.6.6,0,0,0,15.7,6a1.22,1.22,0,0,0-.92,1A1.65,1.65,0,0,0,16,7.51Z"/><path fill="#000100" d="M16,7.59a1.7,1.7,0,1,1,1.7-1.7A1.7,1.7,0,0,1,16,7.59Zm0-3.24A1.54,1.54,0,1,0,17.5,5.89,1.54,1.54,0,0,0,16,4.35Z"/><path fill="#fbba61" d="M16,10.75h9.71a1.62,1.62,0,0,1,1.62,1.62v4a0,0,0,0,1,0,0H16a1.62,1.62,0,0,1-1.62-1.62V12.37A1.62,1.62,0,0,1,16,10.75Z"/><path fill="#000100" d="M27.29,16.49H16a1.7,1.7,0,0,1-1.7-1.7V12.37a1.7,1.7,0,0,1,1.7-1.7h9.72a1.7,1.7,0,0,1,1.7,1.7v4A.08.08,0,0,1,27.29,16.49ZM16,10.83a1.54,1.54,0,0,0-1.54,1.54v2.42A1.54,1.54,0,0,0,16,16.33H27.21v-4a1.54,1.54,0,0,0-1.53-1.54Z"/><rect width="5.67" height=".41" x="15.96" y="11.56" fill="#fff"/><rect width="3.24" height=".41" x="22.44" y="11.56" fill="#fff"/><rect width="2.43" height=".4" x="15.96" y="12.77" fill="#fff"/><rect width="6.48" height=".4" x="19.2" y="12.77" fill="#fff"/><rect width="4.86" height=".41" x="15.96" y="13.98" fill="#fff"/><rect width="4.05" height=".41" x="21.63" y="13.98" fill="#fff"/><rect width="7.29" height=".4" x="15.96" y="15.2" fill="#fff"/><path fill="#fff" d="M32.15,12.37a1.62,1.62,0,1,1-1.62-1.62A1.61,1.61,0,0,1,32.15,12.37Z"/><path fill="#000100" d="M30.53,14.07a1.7,1.7,0,1,1,1.7-1.7A1.71,1.71,0,0,1,30.53,14.07Zm0-3.24a1.54,1.54,0,1,0,1.54,1.54A1.53,1.53,0,0,0,30.53,10.83Z"/><path d="M30.53,14a1.59,1.59,0,0,0,1.18-.51,1.21,1.21,0,0,0-.91-1,.6.6,0,0,0,.34-.54.61.61,0,1,0-1.21,0,.6.6,0,0,0,.34.54,1.2,1.2,0,0,0-.91,1A1.57,1.57,0,0,0,30.53,14Z"/><path fill="#000100" d="M30.53,14.07a1.7,1.7,0,1,1,1.7-1.7A1.71,1.71,0,0,1,30.53,14.07Zm0-3.24a1.54,1.54,0,1,0,1.54,1.54A1.53,1.53,0,0,0,30.53,10.83Z"/><path fill="#fbba61" d="M20.82,19.65h9.71a1.62,1.62,0,0,1,1.62,1.62v1.21a1.62,1.62,0,0,1-1.62,1.62H19.2a0,0,0,0,1,0,0V21.27A1.62,1.62,0,0,1,20.82,19.65Z"/><path fill="#000100" d="M30.53,24.18H19.2a.07.07,0,0,1-.08-.08V21.27a1.7,1.7,0,0,1,1.7-1.7h9.71a1.7,1.7,0,0,1,1.7,1.7v1.22A1.7,1.7,0,0,1,30.53,24.18ZM19.28,24H30.53a1.54,1.54,0,0,0,1.54-1.53V21.27a1.54,1.54,0,0,0-1.54-1.54H20.82a1.54,1.54,0,0,0-1.54,1.54Z"/><rect width="4.05" height=".41" x="20.82" y="20.46" fill="#fff"/><rect width="4.86" height=".41" x="25.68" y="20.46" fill="#fff"/><rect width="2.43" height=".4" x="20.82" y="21.68" fill="#fff"/><rect width="6.48" height=".4" x="24.06" y="21.68" fill="#fff"/><rect width="6.48" height=".41" x="20.82" y="22.89" fill="#fff"/><path fill="#fff" d="M17.58,21.27A1.62,1.62,0,1,1,16,19.65,1.61,1.61,0,0,1,17.58,21.27Z"/><path fill="#000100" d="M16,23a1.7,1.7,0,1,1,1.7-1.7A1.7,1.7,0,0,1,16,23Zm0-3.24a1.54,1.54,0,1,0,1.54,1.54A1.54,1.54,0,0,0,16,19.73Z"/><path d="M16,22.89a1.63,1.63,0,0,0,1.18-.51,1.2,1.2,0,0,0-.91-1,.61.61,0,0,0,.34-.54.61.61,0,0,0-.61-.61.61.61,0,0,0-.61.61.62.62,0,0,0,.35.54,1.2,1.2,0,0,0-.92,1A1.65,1.65,0,0,0,16,22.89Z"/><path fill="#000100" d="M16,23a1.7,1.7,0,1,1,1.7-1.7A1.7,1.7,0,0,1,16,23Zm0-3.24a1.54,1.54,0,1,0,1.54,1.54A1.54,1.54,0,0,0,16,19.73Z"/><rect width="56" height="2" x=".1" y="34.77" fill="#fff"/><path fill="#000100" d="M56.1,36.87H.1a.09.09,0,0,1-.1-.1v-2a.1.1,0,0,1,.1-.1h56a.1.1,0,0,1,.1.1v2A.09.09,0,0,1,56.1,36.87ZM.2,36.67H56v-1.8H.2Z"/><path fill="#3ed1d8" d="M15.1,33.77c-2.21,0-4,1.15-4,2.56a1.3,1.3,0,0,0,.05.37v.07H19V36.7a1.8,1.8,0,0,0,.05-.37C19.1,34.92,17.3,33.77,15.1,33.77Z"/><path fill="#000100" d="M19,36.87H11.16a.11.11,0,0,1-.1-.08v-.07a1.89,1.89,0,0,1-.05-.39c0-1.47,1.84-2.66,4.1-2.66s4.1,1.19,4.1,2.66a2,2,0,0,1-.05.39l0,.07A.09.09,0,0,1,19,36.87Zm-7.8-.2H19a1.48,1.48,0,0,0,0-.34c0-1.36-1.75-2.46-3.9-2.46s-3.9,1.1-3.9,2.46A1.42,1.42,0,0,0,11.24,36.67Z"/><path fill="#fff" d="M40.41,6.16a5.54,5.54,0,0,0-.24,2.62c.22.54-1,2.33-1,3,0,.34.88.39.88.39s.36,4.06,2.75,3.14a13.26,13.26,0,0,1-.55,1.94l5.27.05s-.73-1.93-.25-2.7,1.95-1.07,1.95-3.77S42.6,1.05,40.41,6.16Z"/><path d="M42.75,4.25a2.62,2.62,0,0,0-2.44,1.87,5.46,5.46,0,0,0-.24,2.7c.1.26-.23,1-.5,1.55a4.2,4.2,0,0,0-.51,1.41c0,.37.62.47.89.49.07.56.46,3.29,2.18,3.29a1.93,1.93,0,0,0,.52-.08,16.3,16.3,0,0,1-.5,1.74.09.09,0,0,0,0,.1.1.1,0,0,0,.09,0l5.27.05h0a.11.11,0,0,0,.09-.05.09.09,0,0,0,0-.1s-.7-1.89-.26-2.6a2.89,2.89,0,0,1,.52-.54,3.73,3.73,0,0,0,1.45-3.29c0-1-.9-2.64-2.22-4.07C45.62,5.17,44,4.25,42.75,4.25Zm5,9.7a3.15,3.15,0,0,0-.57.59c-.42.69,0,2.16.2,2.64l-5,0a14.24,14.24,0,0,0,.51-1.81.15.15,0,0,0,0-.11.11.11,0,0,0-.11,0,1.84,1.84,0,0,1-.63.12c-1.67,0-2-3.14-2-3.17a.1.1,0,0,0-.1-.1c-.33,0-.78-.13-.78-.28a4.65,4.65,0,0,1,.48-1.31c.34-.72.66-1.39.52-1.73a5.3,5.3,0,0,1,.23-2.53,2.42,2.42,0,0,1,2.24-1.74c2.73,0,6.36,4.37,6.36,6.36A3.5,3.5,0,0,1,47.74,14Z"/><path d="M44.76,8.45a1.39,1.39,0,0,0-.86,1.2h.22a1.16,1.16,0,0,1,.72-1,.58.58,0,0,1,.7.2c.53.65-.1,1.56-.11,1.57l.18.13s.74-1.06.1-1.84A.83.83,0,0,0,44.76,8.45Z"/><path d="M44.6,8.59l-.07.21a.54.54,0,0,1,.34.3.75.75,0,0,1-.07.56l.19.11A1,1,0,0,0,45.08,9,.77.77,0,0,0,44.6,8.59Z"/><path fill="#fff" d="M25,31.36S20,33.15,19.53,33s-2.38-1.86-3.22-2.12-4.59,3-4.21,3.45c.2.26,1.83-.43,1.83-.43A1,1,0,0,0,14,35s-.27,1.3.19,1.76H27.1Z"/><path fill="#000100" d="M27.1,36.87H14.21a.11.11,0,0,1-.07,0c-.45-.44-.27-1.56-.22-1.81a1.1,1.1,0,0,1-.17-1c-.57.24-1.53.57-1.73.31s0-.42.15-.61c.65-.94,3.11-3,4-3h.13a9.8,9.8,0,0,1,2.12,1.37,8.6,8.6,0,0,0,1.1.75A33,33,0,0,0,25,31.27a.1.1,0,0,1,.13.05l2.08,5.42a.08.08,0,0,1,0,.09A.09.09,0,0,1,27.1,36.87Zm-12.84-.2H27l-2-5.18c-1,.36-5,1.75-5.46,1.58a6.46,6.46,0,0,1-1.16-.78A9.52,9.52,0,0,0,16.28,31l-.08,0c-.73,0-3.15,1.9-3.87,2.94-.17.25-.17.35-.15.37a3.81,3.81,0,0,0,1.71-.46.11.11,0,0,1,.12,0,.11.11,0,0,1,0,.11.93.93,0,0,0,.08,1,.1.1,0,0,1,0,.09C14.05,35.37,13.94,36.3,14.26,36.67Z"/><path d="M48.8,3C47.86,0,42.38,1.85,42.38,1.85c-.16-.39.39-1.09.39-1.09A4,4,0,0,0,41.49,2,2.14,2.14,0,0,1,41.68.18a4.5,4.5,0,0,0-3,3.84c-.42,3.13,3,2.49,3,2.49,0,2.21,1.55,2.58,1.55,2.58s0-.25.74-.92a1.65,1.65,0,0,1,2.61,1.68c-.35,2.15-1.95,1.77-1.95,1.77-.18,3.45,2.43,2.23,2.43,2.23a3.34,3.34,0,0,0,.37,1.34c1.09-1.92,4.15-2.85,4.15-7.91C51.58,3.56,48.8,3,48.8,3Z"/><path d="M48.89,2.93c-.39-1.17-1.46-1.76-3.18-1.76a12,12,0,0,0-3.25.54,1.75,1.75,0,0,1,.4-.88l.28-.36-.41.19a3.72,3.72,0,0,0-1.2,1A2.12,2.12,0,0,1,41.77.24L41.92,0l-.27.07A4.66,4.66,0,0,0,38.58,4,2.37,2.37,0,0,0,39,6a2.63,2.63,0,0,0,2,.73,3.86,3.86,0,0,0,.57,0A2.47,2.47,0,0,0,43.2,9.2l.14,0V9.09s0-.24.71-.84A1.39,1.39,0,0,1,45,8a1.57,1.57,0,0,1,1.22.52,1.59,1.59,0,0,1,.3,1.35c-.24,1.49-1.09,1.71-1.57,1.71a1.22,1.22,0,0,1-.24,0l-.13,0v.13A2.81,2.81,0,0,0,45,13.74a1.36,1.36,0,0,0,1.06.43A2.74,2.74,0,0,0,47,14a3.4,3.4,0,0,0,.37,1.23l.1.17.1-.17a7.47,7.47,0,0,1,1.3-1.52,7.93,7.93,0,0,0,2.86-6.44C51.69,3.84,49.32,3,48.89,2.93Zm-.21,10.64A8.37,8.37,0,0,0,47.44,15a3.09,3.09,0,0,1-.27-1.12v-.16l-.15.07a2.59,2.59,0,0,1-.92.2,1.16,1.16,0,0,1-.9-.36,2.54,2.54,0,0,1-.47-1.84h.17c.45,0,1.51-.18,1.79-1.89A1.7,1.7,0,0,0,45,7.74a1.65,1.65,0,0,0-1.05.34,2.91,2.91,0,0,0-.75.87,2.33,2.33,0,0,1-1.36-2.44V6.38l-.13,0a3.76,3.76,0,0,1-.66.06,2.43,2.43,0,0,1-1.82-.65A2.22,2.22,0,0,1,38.8,4,4.48,4.48,0,0,1,41.45.38,2.15,2.15,0,0,0,41.39,2l.08.19L41.58,2a5.08,5.08,0,0,1,.83-.9,1.07,1.07,0,0,0-.14.78l0,.1.1,0a11.67,11.67,0,0,1,3.3-.57c1.64,0,2.65.56,3,1.66l0,.07h.06c.11,0,2.68.57,2.68,4.15A7.7,7.7,0,0,1,48.68,13.57Z"/><path fill="#8a59fe" d="M47.51,16.82a24.79,24.79,0,0,0-5.2.33c-.44.19-4,0-5.71.68-2.16.85-6.43,12.67-6.43,12.67L21.3,31.58a.62.62,0,0,0-.53.47,23.77,23.77,0,0,0-.62,4.72H40.7l13.37-16A7.92,7.92,0,0,0,47.51,16.82Z"/><path fill="#000100" d="M40.7,36.87H20.15a.1.1,0,0,1-.1-.1A23.91,23.91,0,0,1,20.67,32a.72.72,0,0,1,.62-.55L30.1,30.4c.36-1,4.34-11.83,6.47-12.67a15.87,15.87,0,0,1,4.35-.57,7.27,7.27,0,0,0,1.35-.1,24.52,24.52,0,0,1,5.24-.34h0a8.11,8.11,0,0,1,6.65,4,.09.09,0,0,1,0,.1l-13.37,16A.11.11,0,0,1,40.7,36.87Zm-20.45-.2h20.4L54,20.77a7.91,7.91,0,0,0-6.45-3.85,25.3,25.3,0,0,0-5.15.32,6.27,6.27,0,0,1-1.42.12,15.71,15.71,0,0,0-4.29.56c-2.1.83-6.33,12.49-6.37,12.61a.08.08,0,0,1-.08.06l-8.88,1.09a.51.51,0,0,0-.44.4A23.66,23.66,0,0,0,20.25,36.67Z"/><path d="M15.18,32.67a.1.1,0,0,0-.08.13l0,.2a4.61,4.61,0,0,0-1.36.88.11.11,0,0,0,0,.16.11.11,0,0,0,.07,0,.11.11,0,0,0,.08,0,4.42,4.42,0,0,1,1.37-.88.1.1,0,0,0,.06-.12l-.06-.29A.1.1,0,0,0,15.18,32.67Z"/><path fill="#fff" d="M40.63,8.21a1.6,1.6,0,0,0-.92-.5Z"/><path d="M40.35,7.62A.55.55,0,0,0,40,7.55a.51.51,0,0,0-.33.16,1.52,1.52,0,0,0,.18.28.66.66,0,0,0,.19.15,1,1,0,0,0,.22.07h.33a.46.46,0,0,0-.05-.37A.49.49,0,0,0,40.35,7.62Z"/><path d="M40,10.7a5.88,5.88,0,0,0,0,1.58l.22,0a5.8,5.8,0,0,1,0-1.51Z"/><path d="M51.93,27.58c-.11,0-14.36,0-14.36,0l-2.06,9.08H49.45a1.19,1.19,0,0,0,1.11-.79c2.44-7,2.31-6.61,2.36-6.91A1.22,1.22,0,0,0,51.93,27.58Z"/><path d="M51.94,27.47H37.57a.12.12,0,0,0-.1.09l-2.06,9.08a.1.1,0,0,0,0,.09.09.09,0,0,0,.08,0H49.45a1.28,1.28,0,0,0,1.2-.87l.11-.31C53,29.27,53,29.27,53,29v0a1.32,1.32,0,0,0-.24-1A1.3,1.3,0,0,0,51.94,27.47Zm.87,1.47v0c0,.23-.05.29-2.24,6.54l-.11.31a1.08,1.08,0,0,1-1,.73H35.64l2-8.87H51.91a1,1,0,0,1,.71.43A1.09,1.09,0,0,1,52.81,28.94Z"/><path fill="#fff" d="M37.86,27.58a1.19,1.19,0,0,0-1.34,1c0,.07.11-.28-2.25,6.45A1.21,1.21,0,0,0,35,36.59a1.12,1.12,0,0,0,.4.07,1.18,1.18,0,0,0,1.11-.79c2.44-7,2.32-6.61,2.36-6.91A1.21,1.21,0,0,0,37.86,27.58Z"/><path d="M37.88,27.47a1.29,1.29,0,0,0-1.46,1.12c0,.06-.19.58-1.61,4.62L34.18,35a1.36,1.36,0,0,0,0,1,1.3,1.3,0,0,0,.73.67,1.26,1.26,0,0,0,.43.08,1.3,1.3,0,0,0,1.21-.87l.1-.31C38.91,29.27,38.91,29.27,39,29v0A1.31,1.31,0,0,0,37.88,27.47Zm.87,1.47v0c0,.23-.05.29-2.24,6.54l-.11.31a1.07,1.07,0,0,1-1,.73.92.92,0,0,1-.36-.07,1.07,1.07,0,0,1-.61-.57,1.11,1.11,0,0,1,0-.84l.63-1.8c1.62-4.61,1.62-4.61,1.62-4.67a1.09,1.09,0,0,1,1.06-.94l.17,0A1.1,1.1,0,0,1,38.75,28.94Z"/><path d="M55,18.89c-.1,0-14.35,0-14.35,0L38.57,28H52.51a1.18,1.18,0,0,0,1.11-.8c2.44-7,2.32-6.61,2.36-6.91A1.2,1.2,0,0,0,55,18.89Z"/><path d="M55,18.79H40.64a.1.1,0,0,0-.1.08L38.47,28a.13.13,0,0,0,0,.09.09.09,0,0,0,.08,0H52.51a1.29,1.29,0,0,0,1.21-.87l.1-.27c2.23-6.36,2.23-6.36,2.26-6.62v0A1.29,1.29,0,0,0,55,18.79Zm.87,1.46v0c0,.23,0,.3-2.25,6.57l-.1.28a1.07,1.07,0,0,1-1,.73H38.71l2-8.87H55A1.1,1.1,0,0,1,55.88,20.25Z"/><path fill="#fff" d="M40.93,18.89a1.18,1.18,0,0,0-1.34,1c0,.07.11-.28-2.25,6.45a1.21,1.21,0,0,0,.71,1.54,1.1,1.1,0,0,0,.4.08,1.17,1.17,0,0,0,1.1-.8c2.45-7,2.32-6.61,2.37-6.91A1.22,1.22,0,0,0,40.93,18.89Z"/><path d="M40.94,18.79a1.28,1.28,0,0,0-1.46,1.12c0,.05-.19.56-1.58,4.53l-.66,1.88A1.32,1.32,0,0,0,38,28a1.11,1.11,0,0,0,.44.08,1.28,1.28,0,0,0,1.2-.87l.1-.27C42,20.58,42,20.58,42,20.32v0A1.31,1.31,0,0,0,40.94,18.79Zm.87,1.46v0c0,.23-.05.3-2.26,6.57l-.09.28a1.08,1.08,0,0,1-1,.73.94.94,0,0,1-.37-.07,1.11,1.11,0,0,1-.64-1.41l.66-1.88C39.69,20,39.69,20,39.69,19.92A1.08,1.08,0,0,1,40.75,19l.16,0A1.09,1.09,0,0,1,41.81,20.25Z"/></svg>