<?xml version="1.0" standalone="no"?>
<!DOCTYPE svg PUBLIC "-//W3C//DTD SVG 20010904//EN"
 "http://www.w3.org/TR/2001/REC-SVG-20010904/DTD/svg10.dtd">
<svg version="1.0" xmlns="http://www.w3.org/2000/svg"
 width="465.000000pt" height="455.000000pt" viewBox="0 0 465.000000 455.000000"
 preserveAspectRatio="xMidYMid meet">

<g transform="translate(0.000000,455.000000) scale(0.100000,-0.100000)"
fill="#000000" stroke="none">
<path d="M2140 4459 c-939 -83 -1728 -770 -1939 -1689 -49 -212 -66 -540 -41
-750 51 -409 207 -781 462 -1102 567 -713 1520 -1000 2385 -719 744 242 1307
866 1467 1627 115 552 16 1128 -279 1603 -241 389 -617 708 -1032 875 -329
132 -680 185 -1023 155z m249 -336 c16 -14 28 -51 52 -163 34 -159 82 -304
125 -378 15 -26 54 -75 86 -108 69 -73 145 -111 246 -124 141 -19 202 -32 195
-43 -3 -5 -1 -7 5 -3 6 3 29 0 52 -8 29 -10 51 -11 73 -5 24 7 33 5 39 -6 5
-8 14 -12 22 -9 15 6 17 -3 19 -126 2 -58 12 -132 25 -190 13 -52 28 -124 34
-160 18 -114 61 -180 159 -250 92 -64 195 -100 428 -149 106 -23 201 -46 212
-51 43 -24 52 -85 17 -124 -19 -21 -49 -30 -173 -57 -82 -17 -188 -45 -235
-61 -226 -78 -358 -214 -376 -386 -4 -36 -11 -59 -17 -55 -5 3 -8 0 -5 -8 2
-7 -2 -38 -10 -69 -7 -30 -16 -68 -19 -85 -3 -16 -9 -35 -14 -40 -4 -6 -6 -41
-4 -78 3 -51 1 -67 -9 -67 -8 0 -19 -7 -26 -15 -8 -10 -31 -15 -66 -15 -58 0
-182 -26 -201 -42 -7 -6 -24 -7 -39 -4 -15 4 -23 3 -20 -3 4 -5 -3 -7 -16 -3
-13 3 -19 1 -15 -5 4 -6 -16 -12 -54 -16 -136 -12 -247 -103 -330 -271 -48
-97 -74 -184 -124 -419 -18 -86 -40 -111 -97 -109 -57 1 -67 23 -118 254 -64
289 -106 386 -206 478 -60 55 -123 82 -209 88 -38 2 -74 8 -80 12 -5 4 -44 12
-85 19 -41 7 -86 16 -100 20 -14 5 -43 6 -65 4 -22 -2 -54 -1 -71 2 -38 7 -45
27 -49 131 -1 39 -5 76 -9 82 -4 6 -11 39 -16 74 -36 257 -51 300 -130 379
-97 98 -196 138 -484 200 -208 44 -236 58 -236 119 0 58 31 75 195 110 82 18
181 43 220 57 227 81 359 219 373 390 2 37 8 70 12 73 10 6 50 207 50 248 0
16 7 43 15 58 15 29 15 29 117 30 110 2 181 12 173 24 -2 4 19 10 48 13 107
13 209 36 252 57 24 12 69 48 99 81 95 103 133 203 202 537 32 156 47 182 104
182 21 0 47 -8 59 -17z"/>
<path d="M2421 3392 c-1 -7 -5 -11 -10 -8 -5 3 -34 -8 -65 -24 -30 -17 -64
-30 -74 -30 -10 0 -24 -6 -31 -12 -11 -10 -13 -10 -7 0 4 6 2 12 -3 12 -6 0
-11 -8 -12 -17 0 -11 -3 -13 -6 -5 -7 18 -23 15 -24 -5 -1 -12 -3 -10 -8 6 -4
16 -24 -56 -64 -230 -35 -154 -68 -276 -84 -309 -34 -70 -122 -158 -193 -191
-44 -21 -562 -148 -606 -149 -5 0 -2 -5 6 -10 13 -9 13 -11 0 -20 -11 -7 -11
-10 -2 -10 9 0 10 -5 2 -19 -12 -23 -9 -53 7 -73 10 -13 26 -71 23 -84 -1 -4
4 -11 12 -15 7 -5 8 -9 3 -9 -6 0 -11 -11 -11 -24 0 -14 3 -23 7 -20 4 2 10 0
14 -6 3 -5 -2 -10 -11 -10 -38 0 1 -10 241 -65 287 -65 351 -90 428 -167 79
-79 100 -131 164 -417 33 -148 60 -246 63 -235 6 17 7 17 18 -1 6 -11 12 -15
12 -9 0 6 7 11 15 11 9 0 14 -5 12 -11 -3 -6 9 -12 27 -14 53 -4 64 -8 83 -24
10 -9 29 -19 42 -23 20 -6 23 -5 17 10 -5 14 -3 15 6 8 16 -13 58 1 58 19 0 9
3 9 10 -2 5 -8 10 -10 10 -5 0 6 27 129 60 274 68 298 90 352 175 429 79 72
136 94 395 152 300 67 340 78 312 79 -14 1 -20 5 -17 12 4 6 14 8 23 4 12 -4
12 -1 -4 16 -16 19 -16 21 -2 16 14 -5 15 -1 7 25 -4 17 -15 41 -24 54 -8 13
-16 27 -16 31 -1 5 -8 28 -15 53 -10 34 -11 46 -1 52 9 6 9 8 0 8 -19 0 -16
18 4 22 9 2 -100 29 -243 62 -142 32 -283 69 -311 83 -73 34 -154 111 -192
182 -29 54 -83 268 -157 613 -4 18 -11 25 -20 21 -11 -4 -12 -9 -3 -19 9 -11
8 -14 -3 -14 -8 0 -20 10 -26 23 -6 12 -11 16 -11 9z"/>
<path d="M2181 3354 c0 -11 3 -14 6 -6 3 7 2 16 -1 19 -3 4 -6 -2 -5 -13z"/>
<path d="M3468 2143 c7 -3 16 -2 19 1 4 3 -2 6 -13 5 -11 0 -14 -3 -6 -6z"/>
<path d="M2181 1204 c0 -11 3 -14 6 -6 3 7 2 16 -1 19 -3 4 -6 -2 -5 -13z"/>
<path d="M2471 1174 c0 -11 3 -14 6 -6 3 7 2 16 -1 19 -3 4 -6 -2 -5 -13z"/>
</g>
</svg>
